<svg width="1080" height="1920" viewBox="0 0 1080 1920" fill="none" xmlns="http://www.w3.org/2000/svg">
<g clip-path="url(#clip0_131_8)">
<rect width="1080" height="1920" fill="url(#paint0_linear_131_8)"/>
<g filter="url(#filter0_f_131_8)">
<circle cx="75.5" cy="98.5" r="148.5" fill="#D84222" fill-opacity="0.25"/>
</g>
<g opacity="0.2" filter="url(#filter1_f_131_8)">
<path d="M1181 302C1181 265.931 1166.67 231.338 1141.17 205.833C1115.66 180.329 1081.07 166 1045 166C1008.93 166 974.338 180.329 948.833 205.833C923.329 231.338 909 265.931 909 302L1045 302H1181Z" fill="#0085FF"/>
</g>
<g opacity="0.2" filter="url(#filter2_f_131_8)">
<path d="M202 1660C202 1623.93 187.671 1589.34 162.167 1563.83C136.662 1538.33 102.069 1524 66 1524C29.9306 1524 -4.66156 1538.33 -30.1665 1563.83C-55.6715 1589.34 -70 1623.93 -70 1660L66 1660H202Z" fill="#9A48DB"/>
</g>
</g>
<defs>
<filter id="filter0_f_131_8" x="-220.312" y="-197.312" width="591.624" height="591.624" filterUnits="userSpaceOnUse" color-interpolation-filters="sRGB">
<feFlood flood-opacity="0" result="BackgroundImageFix"/>
<feBlend mode="normal" in="SourceGraphic" in2="BackgroundImageFix" result="shape"/>
<feGaussianBlur stdDeviation="73.656" result="effect1_foregroundBlur_131_8"/>
</filter>
<filter id="filter1_f_131_8" x="727.667" y="-15.3333" width="634.667" height="498.667" filterUnits="userSpaceOnUse" color-interpolation-filters="sRGB">
<feFlood flood-opacity="0" result="BackgroundImageFix"/>
<feBlend mode="normal" in="SourceGraphic" in2="BackgroundImageFix" result="shape"/>
<feGaussianBlur stdDeviation="90.6667" result="effect1_foregroundBlur_131_8"/>
</filter>
<filter id="filter2_f_131_8" x="-251.333" y="1342.67" width="634.667" height="498.667" filterUnits="userSpaceOnUse" color-interpolation-filters="sRGB">
<feFlood flood-opacity="0" result="BackgroundImageFix"/>
<feBlend mode="normal" in="SourceGraphic" in2="BackgroundImageFix" result="shape"/>
<feGaussianBlur stdDeviation="90.6667" result="effect1_foregroundBlur_131_8"/>
</filter>
<linearGradient id="paint0_linear_131_8" x1="-1.27356e-05" y1="198.5" x2="828.5" y2="1840" gradientUnits="userSpaceOnUse">
<stop stop-color="#050505"/>
<stop offset="0.249568" stop-color="#07111B"/>
<stop offset="0.463542" stop-color="#130D1F"/>
<stop offset="0.796875" stop-color="#130C1E"/>
<stop offset="0.895833" stop-color="#020202"/>
</linearGradient>
<clipPath id="clip0_131_8">
<rect width="1080" height="1920" fill="white"/>
</clipPath>
</defs>
</svg>
