<svg width="536" height="578" viewBox="0 0 536 578" fill="none" xmlns="http://www.w3.org/2000/svg">
<g opacity="0.15">
<path d="M223.145 37.9882C234.697 31.8316 241.362 28.1855 255.482 26.5137C271.008 27.4867 279.313 29.4417 293.557 33.2941" stroke="white" stroke-width="3.12941"/>
<path d="M190.808 60.9375V56.2434L255.482 2M255.482 2V27.0355M255.482 2L335.282 47.8983V59.3728" stroke="white" stroke-width="3.12941"/>
<path d="M182.463 102.141C198.43 65.8763 211.092 53.2106 237.749 39.0312" stroke="white" stroke-width="3.12941" stroke-linecap="square"/>
<path d="M199.766 122.779L200.189 107.118C200.221 107.026 200.263 106.905 200.315 106.758C200.45 106.377 200.649 105.821 200.906 105.122C201.421 103.724 202.169 101.762 203.099 99.5061C204.963 94.9804 207.533 89.3344 210.393 84.7099C213.178 80.2089 216.229 76.7353 219.15 74.3881C222.1 72.0165 224.779 70.9014 226.837 70.8472C228.715 70.7978 230.505 71.5723 232.061 72.6538C233.245 73.477 234.225 74.4318 234.915 75.1906C235.257 75.5675 235.522 75.8898 235.699 76.114C235.708 76.1253 235.716 76.1363 235.725 76.1471L237.656 92.0825L199.766 122.779Z" stroke="white" stroke-width="3.12941"/>
<path d="M140.737 424.471L136.565 426.557" stroke="white" stroke-width="3.12941" stroke-linecap="square"/>
<path d="M428.643 190.286V187.157L254.439 88.5806L248.702 85.4512L97.9688 206.977V210.106" stroke="white" stroke-width="3.12941" stroke-linecap="square"/>
<path d="M198.11 139.694L97.4471 217.93L89.1021 333.196" stroke="white" stroke-width="3.12941" stroke-linecap="square"/>
<path d="M214.278 216.886L246.616 192.372V178.29M246.616 178.29L214.8 202.804M246.616 178.29V164.208M246.616 164.208L214.8 189.243M246.616 164.208V150.647L215.321 175.16M247.137 137.086L215.843 162.121V148.039L214.278 240.357" stroke="white" stroke-width="3.12941" stroke-linecap="square"/>
<path d="M246.616 220.537L242.965 223.145" stroke="white" stroke-width="3.12941" stroke-linecap="square"/>
<path d="M140.737 428.121L138.921 447.419L134.704 448.305C134.259 448.399 133.926 448.77 133.881 449.222L132.914 458.894L137.608 458.372L136.565 471.411L131.871 471.933" stroke="white" stroke-width="3.12941" stroke-linecap="square"/>
<path d="M120.917 576.247L121.961 567.38L127.176 565.816M144.91 383.267L141.259 384.31" stroke="white" stroke-width="3.12941" stroke-linecap="square"/>
<path d="M143.867 392.655L140.216 394.22" stroke="white" stroke-width="3.12941" stroke-linecap="square"/>
<path d="M142.823 403.086L139.172 404.651" stroke="white" stroke-width="3.12941" stroke-linecap="square"/>
<path d="M141.78 412.996L137.608 415.604" stroke="white" stroke-width="3.12941" stroke-linecap="square"/>
<path d="M129.263 358.232V356.146M129.263 349.887L126.765 353.217C126.348 353.773 126.046 354.407 125.878 355.081L125.09 358.232M129.263 349.887V356.146M129.263 349.887L139.213 354.059M125.09 358.232L124.047 359.797V360.84M125.09 358.232L129.263 356.146M139.213 354.581V354.059M139.213 354.059V361.883M146.474 371.793L141.78 374.922L130.306 483.408L127.698 484.973M127.698 484.973L135.521 480.279M127.698 484.973L120.917 553.82L129.263 548.083" stroke="white" stroke-width="3.12941" stroke-linecap="square"/>
<path d="M107.357 367.62C108.483 366.042 109.735 364.135 111.008 362.404C116.246 363.693 118.725 364.55 121.439 366.577" stroke="white" stroke-width="3.12941" stroke-linecap="square"/>
<path d="M41.6392 381.702L41.1176 389.004L87.5373 353.016L31.2078 396.827L2 575.725L73.9765 576.247M73.9765 576.247L93.2745 394.22L103.184 387.439L102.663 393.176L96.4039 396.827L77.1059 576.247M73.9765 576.247H77.1059M77.1059 576.247H81.8M81.8 576.247L104.227 380.659L109.443 375.965L87.5373 576.247M81.8 576.247H87.5373M87.5373 576.247H100.055M100.055 576.247H106.835M100.055 576.247L121.929 366.885M128.741 362.404L121.961 366.576L121.929 366.885M128.741 362.404L106.835 576.247M128.741 362.404L136.043 365.533L135.522 370.227L146.996 362.404L126.655 576.247M106.835 576.247H126.655M126.655 576.247H131.349L151.69 353.537L137.608 362.925L129.263 358.753L123.004 362.404L121.929 366.885" stroke="white" stroke-width="3.12941" stroke-linecap="square"/>
<path d="M116.224 378.572L109.965 375.443V372.314M109.965 372.314L119.353 376.486M109.965 372.314L104.749 376.486L104.228 380.659L104.749 374.4L106.835 372.522M109.965 372.314V369.706M109.965 369.706L106.835 372.522M109.965 369.706V366.055L106.835 368.141V372.522" stroke="white" stroke-width="3.12941" stroke-linecap="square"/>
<path d="M33.2939 381.18L41.1175 384.831L41.639 381.18L88.0586 346.757" stroke="white" stroke-width="3.12941" stroke-linecap="square"/>
<path d="M238.27 242.443L169.423 293.557" stroke="white" stroke-width="3.12941" stroke-linecap="square"/>
<path d="M239.835 221.58L161.079 279.996V284.69" stroke="white" stroke-width="3.12941" stroke-linecap="square"/>
<path d="M240.357 228.36L161.6 285.211L166.816 288.341L241.4 232.533M241.4 232.533L332.675 279.996M241.4 232.533V243.486" stroke="white" stroke-width="3.12941" stroke-linecap="square"/>
<path d="M111.529 329.545L163.686 290.949" stroke="white" stroke-width="3.12941" stroke-linecap="square"/>
<path d="M490.71 359.274V370.227" stroke="white" stroke-width="3.12941"/>
<path d="M414.039 331.632L499.055 374.4L534 575.726H236.184" stroke="white" stroke-width="3.12941"/>
<path d="M386.396 406.737L381.702 405.694H381.18L382.223 415.083L386.917 416.126L388.459 428.46C388.469 428.541 388.388 428.601 388.313 428.568L383.788 426.557L384.31 435.945L389.525 438.553L390.568 451.592L385.874 450.028L386.917 460.981L392.133 463.067L394.219 481.843" stroke="white" stroke-width="3.12941"/>
<path d="M384.31 385.353L379.094 383.788L380.137 394.219L384.831 395.784" stroke="white" stroke-width="3.12941"/>
<path d="M411.431 383.788L405.172 387.961L417.168 494.24L414.039 492.796L420.819 495.925" stroke="white" stroke-width="3.12941"/>
<path d="M422.384 566.337L426.557 568.423V575.725" stroke="white" stroke-width="3.12941"/>
<path d="M414.039 492.796L420.819 495.925L427.6 567.38L422.384 564.772" stroke="white" stroke-width="3.12941"/>
<path d="M401.522 377.529L411.431 382.745L432.816 575.725H420.82H438.031L416.647 379.615L401 372.313" stroke="white" stroke-width="3.12941"/>
<path d="M382.745 375.965L394.22 481.843L388.482 479.235L397.871 483.408L403.086 556.428M403.086 556.428L395.784 553.298M403.086 556.428L400.478 559.035M400.478 559.035L402.565 575.204M400.478 559.035L396.306 557.471" stroke="white" stroke-width="3.12941"/>
<path d="M377.008 366.283L389.004 371.493L388.482 366.283L389.004 372.535L382.745 376.182L378.051 374.098" stroke="white" stroke-width="3.12941"/>
<path d="M366.577 466.837L374.4 468.921L379.094 544.987H377.53" stroke="white" stroke-width="3.12941"/>
<path d="M375.965 354.301L376.598 360.553M398.392 575.726H390.569M398.392 575.726L376.598 360.553M398.392 575.726H415.082M376.598 360.553L385.875 365.242M385.875 365.242L393.177 360.032L400.479 363.158M385.875 365.242L388.482 366.426L393.177 363.016M400.479 363.158V366.284M400.479 363.158V360.553L393.177 357.427M400.479 366.284L393.698 362.637L393.177 363.016M400.479 366.284L422.906 575.726H415.082M393.177 363.016L415.082 575.726M393.177 357.427L383.788 363.679L384.832 357.427L387.439 355.962M393.177 357.427V356.385V352.738M393.177 352.738L397.871 354.301V358.99M393.177 352.738L387.439 355.962M387.439 355.962C387.561 353.296 388.028 351.833 390.767 350.644C391.642 350.264 392.636 350.215 393.535 350.535C395.35 351.181 396.223 352.114 397.349 353.78" stroke="white" stroke-width="3.12941"/>
<path d="M369.706 351.695L390.531 575.726H377.492L375.443 547.592M375.443 547.592L363.969 542.382V538.735L377.53 544.987L375.443 547.592Z" stroke="white" stroke-width="3.12941"/>
<path d="M376.486 559.054L364.49 553.844" stroke="white" stroke-width="3.12941"/>
<path d="M377.529 572.079L365.533 566.348" stroke="white" stroke-width="3.12941"/>
<path d="M360.839 374.098L350.408 369.409" stroke="white" stroke-width="3.12941"/>
<path d="M361.883 385.04L351.451 379.83" stroke="white" stroke-width="3.12941"/>
<path d="M362.404 394.418L351.973 389.729" stroke="white" stroke-width="3.12941"/>
<path d="M363.447 405.359L352.494 400.67" stroke="white" stroke-width="3.12941"/>
<path d="M364.49 416.82L354.059 412.652" stroke="white" stroke-width="3.12941"/>
<path d="M365.534 427.762L354.581 423.073" stroke="white" stroke-width="3.12941"/>
<path d="M366.576 440.265L355.624 435.576" stroke="white" stroke-width="3.12941"/>
<path d="M367.619 450.686L356.667 446.518" stroke="white" stroke-width="3.12941"/>
<path d="M368.141 462.147L357.188 459.021" stroke="white" stroke-width="3.12941"/>
<path d="M360.318 363.679L368.663 467.358L357.71 464.232" stroke="white" stroke-width="3.12941"/>
<path d="M349.365 352.737L363.969 359.51L363.447 354.821" stroke="white" stroke-width="3.12941"/>
<path d="M335.804 298.251L340.498 345.965M340.498 345.965H339.455L357.188 575.726H361.882M340.498 345.965L343.627 345.518M360.839 353.259L369.184 347.528L375.443 350.894M360.839 353.259L363.447 354.822L369.184 351.175L375.964 354.301V351.175L375.443 350.894M360.839 353.259L348.6 347.528M361.882 575.726L343.627 345.518M361.882 575.726H366.535M343.627 345.518L344.149 345.444L348.6 347.528M348.6 347.528L366.535 575.726M366.576 576.247L366.535 575.726M375.443 350.894V348.049L369.184 345.444L360.839 350.572V352.738" stroke="white" stroke-width="3.12941"/>
<path d="M373.357 346.486V342.318L372.314 342.021M369.706 341.276V345.444L365.533 347.528L365.012 343.36M369.706 341.276L365.012 343.36M369.706 341.276L372.314 342.021M365.012 343.36L360.839 345.444L361.882 349.612M365.012 343.36C364.604 341.31 365.215 338.097 368.141 338.15C371.585 338.566 372.398 341.005 372.314 342.021" stroke="white" stroke-width="3.12941"/>
<path d="M238.27 242.443L236.184 576.247" stroke="white" stroke-width="3.12941"/>
<path d="M238.271 242.807L334.761 292.302M334.761 292.302V299.075L339.455 295.949M334.761 292.302L339.455 289.697M339.455 295.949V289.697M339.455 295.949L413.518 332.94V326.688L406.216 323.041M339.455 289.697L403.608 321.738M406.216 323.041V317.31M406.216 323.041L403.608 321.738M406.216 317.31L410.388 314.705L499.055 359.511M406.216 317.31L490.71 359.511V363.679L499.055 359.511M499.055 359.511V353.78L448.463 327.619M410.388 307.932L403.608 311.579V321.738M410.388 307.932V315.226M410.388 307.932L432.816 319.529M448.463 327.619L438.656 216.236M448.463 327.619L432.816 319.529M424.47 196.437L437.51 203.21L438.656 216.236M424.47 196.437L424.992 208.942M424.47 196.437L247.137 97.4473L246.616 224.572M424.992 208.942L438.656 216.236M424.992 208.942L432.816 319.529M246.616 224.572L336.847 270.941V277.193L240.357 228.219V221.967L246.616 224.572ZM247.659 111.514L291.992 136.522" stroke="white" stroke-width="3.12941"/>
<path d="M247.659 124.539L284.69 145.379M247.137 137.564L285.733 158.404" stroke="white" stroke-width="3.12941"/>
<path d="M247.137 151.631L285.212 171.95" stroke="white" stroke-width="3.12941"/>
<path d="M247.137 165.177L284.69 184.975" stroke="white" stroke-width="3.12941"/>
<path d="M247.137 179.244L285.212 199.042" stroke="white" stroke-width="3.12941"/>
<path d="M247.137 192.79L285.212 212.588" stroke="white" stroke-width="3.12941"/>
<path d="M246.616 206.857L285.733 227.697" stroke="white" stroke-width="3.12941"/>
<path d="M246.616 220.538L285.212 241.244V144.338V142.254L299.294 131.312M299.294 131.312L300.859 252.185M299.294 131.312L424.47 200.085M246.616 206.455L214.278 230.447" stroke="white" stroke-width="3.12941"/>
<path d="M336.325 277.192L332.674 279.797V290.738" stroke="white" stroke-width="3.12941"/>
<path d="M439.596 229.782L424.992 221.967" stroke="white" stroke-width="3.12941"/>
<path d="M441.161 242.807L426.557 235.513" stroke="white" stroke-width="3.12941"/>
<path d="M442.204 256.352L427.079 248.537" stroke="white" stroke-width="3.12941"/>
<path d="M443.247 269.898L428.643 262.083" stroke="white" stroke-width="3.12941"/>
<path d="M444.29 283.445L429.687 275.63" stroke="white" stroke-width="3.12941"/>
<path d="M445.333 296.991L430.729 289.176" stroke="white" stroke-width="3.12941"/>
<path d="M446.898 311.579L432.294 303.764" stroke="white" stroke-width="3.12941"/>
<path d="M448.463 325.646L433.859 317.831" stroke="white" stroke-width="3.12941"/>
<path d="M349.886 358.99L359.796 363.679L363.969 359.511" stroke="white" stroke-width="3.12941"/>
<path d="M246.616 97.9688L90.145 223.145L80.7568 339.455L89.6234 333.007M103.706 322.765V329.024L32.7725 381.18V374.922L89.6234 333.007M103.706 322.765L89.6234 333.007M103.706 322.765L111.529 325.373V329.545L88.0587 346.757L87.5372 353.016L88.341 353.418M169.423 299.816L93.796 356.145L88.341 353.418M169.423 299.816L164.208 297.208M169.423 299.816V294.079L164.208 290.949V297.208M164.208 297.208L88.341 353.418" stroke="white" stroke-width="3.12941"/>
<path d="M119.874 381.181L115.18 384.31C115.18 384.31 115.18 384.31 115.18 384.31V380.137L120.396 375.965L119.874 381.181Z" stroke="white" stroke-width="3.12941" stroke-linecap="square"/>
<path d="M131.871 576.247L236.706 575.726" stroke="white" stroke-width="3.12941" stroke-linecap="square"/>
<path d="M207.498 142.824L247.137 111.008V125.09L216.365 148.561V147.518L198.631 139.694L195.502 254.961" stroke="white" stroke-width="3.12941" stroke-linecap="square"/>
<path d="M96.9253 217.929V211.67L248.18 89.1016M248.18 89.1016V97.9682M248.18 89.1016L430.729 191.329L432.294 192.372V200.196" stroke="white" stroke-width="3.12941" stroke-linecap="square"/>
<path d="M181.42 139.173L183.506 103.184C183.044 102.293 182.646 101.984 181.42 102.141C176.202 105.221 170.706 114.092 157.949 138.129C162.194 109.69 165.554 93.8222 186.114 66.6746C225.221 21.8004 247.659 34.3373 253.396 61.4589C256.589 46.9341 260.224 37.9842 269.043 34.1596M166.294 122.745C171.502 117.202 175.507 115.78 182.463 114.659M269.043 34.1596C274.414 31.8307 281.706 31.4022 291.992 32.7726C346.753 59.3405 358.604 81.3434 369.185 124.569C349.112 92.0723 336.945 75.7267 311.29 54.6785C301.801 45.8668 283.647 36.9451 269.043 34.1596ZM356.369 104.515C350.867 101.661 347.039 101.13 341.541 102.663M340.498 83.3648L342.585 138.651" stroke="white" stroke-width="3.12941" stroke-linecap="square"/>
<path d="M274.78 99.5331V83.3644C275.983 72.279 278.619 66.9487 285.25 65.7496C293.435 64.2696 301.619 68.6393 307.767 74.2408C316.067 81.8031 319.829 90.2071 322.243 105.27L322.765 126.655" stroke="white" stroke-width="3.12941"/>
<path d="M276.867 32.2509C250.35 31.2661 240.198 33.7217 222.102 38.5094" stroke="white" stroke-width="3.12941"/>
<path d="M416.954 258.571C413.603 285.432 387.851 294.788 358.971 278.614C330.092 262.441 309.884 227.347 313.234 200.485C316.585 173.624 342.337 164.269 371.217 180.442C400.096 196.615 420.304 231.709 416.954 258.571Z" stroke="white" stroke-width="3.12941"/>
<path d="M412.032 256.008C409.059 279.838 386.197 288.182 360.504 273.793C334.811 259.405 316.879 228.215 319.852 204.385C322.824 180.555 345.687 172.211 371.38 186.6C397.073 200.988 415.004 232.178 412.032 256.008Z" stroke="white" stroke-width="3.12941"/>
<circle r="42.2576" transform="matrix(0.785317 -0.619094 -0.0413525 0.999145 143.502 242.789)" stroke="white" stroke-width="3.12941"/>
<circle r="50.7094" transform="matrix(0.785317 -0.619094 -0.0413525 0.999145 144.311 242.019)" stroke="white" stroke-width="3.12941"/>
<path d="M89.1021 237.227L96.404 231.49" stroke="white" stroke-width="3.12941"/>
<path d="M88.0586 249.745L95.3606 244.529" stroke="white" stroke-width="3.12941"/>
<path d="M87.0156 262.784L94.8392 257.568" stroke="white" stroke-width="3.12941"/>
<path d="M85.9727 275.823L93.7962 270.607" stroke="white" stroke-width="3.12941"/>
<path d="M82.8433 315.984L90.6668 310.769" stroke="white" stroke-width="3.12941"/>
<path d="M81.2783 330.588L89.6234 324.329" stroke="white" stroke-width="3.12941"/>
<path d="M84.9292 288.863L92.7527 283.647" stroke="white" stroke-width="3.12941"/>
<path d="M83.8862 302.424L91.7098 297.208" stroke="white" stroke-width="3.12941"/>
<path d="M145.697 241.503C145.613 243.545 144.045 245.687 142.046 245.255C140.356 244.89 139.628 243.229 139.699 241.502C139.782 239.459 141.351 237.318 143.35 237.749C145.04 238.114 145.767 239.775 145.697 241.503Z" fill="white"/>
<path d="M156.389 223.145L143.872 238.792L144.393 239.314L158.997 225.753L174.123 206.455L156.389 223.145Z" fill="white"/>
<path d="M155.867 233.055L141.68 242.249L141.901 242.731L157.954 237.227L169.95 229.404L155.867 233.055Z" fill="white"/>
<path d="M143.732 241.408C143.732 242.561 143.032 243.495 142.168 243.495C141.303 243.495 141.124 243.082 141.124 241.93C141.124 240.778 141.825 239.844 142.689 239.844C143.553 239.844 143.732 240.256 143.732 241.408Z" fill="white"/>
<path d="M361.626 226.956C361.543 228.999 359.974 231.14 357.975 230.708C356.285 230.344 355.558 228.683 355.628 226.955C355.712 224.912 357.28 222.771 359.279 223.202C360.969 223.567 361.696 225.228 361.626 226.956Z" fill="white"/>
<path d="M375.036 221.032L355.915 227.023L356.056 227.747L375.744 224.651L399.067 217.088L375.036 221.032Z" fill="white"/>
<path d="M374.778 229.726L358.04 227.356L357.889 227.865L373.615 234.243L387.801 236.21L374.778 229.726Z" fill="white"/>
</g>
</svg>
