<svg width="16" height="16" viewBox="0 0 16 16" fill="none" xmlns="http://www.w3.org/2000/svg">
<path d="M4.05747 15.9442C3.43857 15.9373 2.82549 15.8238 2.24514 15.6087C1.82134 15.452 1.43791 15.2026 1.12288 14.8787C0.798123 14.5643 0.548371 14.1808 0.392178 13.7566C0.177225 13.1763 0.0638751 12.5633 0.057101 11.9445C0.00956913 10.9157 0 10.6071 0 8.00042C0 5.3937 0.0105104 5.08623 0.0566304 4.05668C0.0642265 3.43811 0.177716 2.8254 0.392178 2.24514C0.549132 1.82127 0.79853 1.43769 1.12226 1.12226C1.4369 0.797788 1.82051 0.548268 2.24467 0.392178C2.82502 0.177047 3.4381 0.0635372 4.057 0.0566304C5.08607 0.00956913 5.39511 0 8.00042 0C10.6057 0 10.9146 0.0105104 11.9442 0.0566304C12.5629 0.0641729 13.1758 0.177664 13.7562 0.392178C14.1802 0.548474 14.5637 0.797907 14.8784 1.1221C15.2027 1.43698 15.4523 1.82058 15.6087 2.24467C15.8238 2.82501 15.9374 3.43809 15.9444 4.057C15.9914 5.08654 16.001 5.39479 16.001 8.00074C16.001 10.6067 15.9914 10.9149 15.9444 11.9445C15.9369 12.5633 15.8234 13.1762 15.6087 13.7566C15.4463 14.1776 15.1975 14.5598 14.8785 14.8788C14.5594 15.1977 14.1771 15.4464 13.7562 15.6087C13.1758 15.8238 12.5628 15.9374 11.9438 15.9444C10.9152 15.9914 10.606 16.001 8.00011 16.001C5.39417 16.001 5.08592 15.9919 4.05731 15.9444" fill="url(#paint0_radial_1672_9)"/>
<path d="M4.05747 15.9442C3.43857 15.9373 2.82549 15.8238 2.24514 15.6087C1.82134 15.452 1.43791 15.2026 1.12288 14.8787C0.798123 14.5643 0.548371 14.1808 0.392178 13.7566C0.177225 13.1763 0.0638751 12.5633 0.057101 11.9445C0.00956913 10.9157 0 10.6071 0 8.00042C0 5.3937 0.0105104 5.08623 0.0566304 4.05668C0.0642265 3.43811 0.177716 2.8254 0.392178 2.24514C0.549132 1.82127 0.79853 1.43769 1.12226 1.12226C1.4369 0.797788 1.82051 0.548268 2.24467 0.392178C2.82502 0.177047 3.4381 0.0635372 4.057 0.0566304C5.08607 0.00956913 5.39511 0 8.00042 0C10.6057 0 10.9146 0.0105104 11.9442 0.0566304C12.5629 0.0641729 13.1758 0.177664 13.7562 0.392178C14.1802 0.548474 14.5637 0.797907 14.8784 1.1221C15.2027 1.43698 15.4523 1.82058 15.6087 2.24467C15.8238 2.82501 15.9374 3.43809 15.9444 4.057C15.9914 5.08654 16.001 5.39479 16.001 8.00074C16.001 10.6067 15.9914 10.9149 15.9444 11.9445C15.9369 12.5633 15.8234 13.1762 15.6087 13.7566C15.4463 14.1776 15.1975 14.5598 14.8785 14.8788C14.5594 15.1977 14.1771 15.4464 13.7562 15.6087C13.1758 15.8238 12.5628 15.9374 11.9438 15.9444C10.9152 15.9914 10.606 16.001 8.00011 16.001C5.39417 16.001 5.08592 15.9919 4.05731 15.9444" fill="url(#paint1_radial_1672_9)"/>
<path d="M6.03594 8.03451C6.03598 7.64262 6.15222 7.25953 6.36998 6.9337C6.58773 6.60787 6.89722 6.35392 7.2593 6.20398C7.62138 6.05405 8.01979 6.01485 8.40415 6.09135C8.78851 6.16785 9.14155 6.3566 9.41863 6.63375C9.69571 6.91089 9.88439 7.26399 9.96079 7.64836C10.0372 8.03274 9.99791 8.43114 9.84788 8.79319C9.69786 9.15524 9.44384 9.46466 9.11796 9.68234C8.79208 9.90002 8.40897 10.0162 8.01707 10.0161C7.49159 10.016 6.98765 9.80721 6.61613 9.43559C6.2446 9.06397 6.0359 8.56 6.03594 8.03451ZM4.96467 8.03451C4.96467 8.63822 5.14369 9.22837 5.47909 9.73034C5.81449 10.2323 6.29121 10.6235 6.84897 10.8546C7.40672 11.0856 8.02045 11.146 8.61256 11.0283C9.20467 10.9105 9.74855 10.6198 10.1754 10.1929C10.6023 9.766 10.893 9.22212 11.0108 8.63001C11.1286 8.0379 11.0681 7.42416 10.8371 6.86641C10.6061 6.30866 10.2149 5.83194 9.71289 5.49654C9.21092 5.16114 8.62078 4.98212 8.01707 4.98212C7.61622 4.9821 7.21929 5.06104 6.84894 5.21443C6.4786 5.36782 6.1421 5.59265 5.85865 5.8761C5.57521 6.15954 5.35037 6.49604 5.19698 6.86639C5.04359 7.23673 4.96465 7.63366 4.96467 8.03451ZM10.477 4.86117C10.4769 5.00224 10.5187 5.14017 10.597 5.25751C10.6753 5.37484 10.7867 5.46631 10.917 5.52036C11.0473 5.5744 11.1907 5.58859 11.3291 5.56113C11.4675 5.53367 11.5946 5.46579 11.6944 5.36608C11.7942 5.26637 11.8622 5.1393 11.8898 5.00095C11.9174 4.8626 11.9033 4.71917 11.8494 4.58881C11.7954 4.45845 11.7041 4.34701 11.5868 4.26858C11.4695 4.19015 11.3316 4.14826 11.1906 4.14819C11.0015 4.14828 10.8201 4.22341 10.6864 4.35709C10.5527 4.49078 10.4774 4.67207 10.4773 4.86117M5.61584 12.8732C5.2389 12.8691 4.86548 12.8001 4.51194 12.6693C4.25555 12.5704 4.02269 12.419 3.82835 12.2248C3.63401 12.0305 3.4825 11.7977 3.38357 11.5414C3.2527 11.1878 3.18372 10.8144 3.17964 10.4375C3.15077 9.81092 3.14512 9.62268 3.14512 8.0353C3.14512 6.44792 3.1514 6.26015 3.17964 5.63298C3.18421 5.25608 3.25318 4.88273 3.38357 4.52907C3.48238 4.2726 3.63385 4.03968 3.8282 3.84533C4.02255 3.65098 4.25547 3.49952 4.51194 3.4007C4.86546 3.26984 5.23889 3.20085 5.61584 3.19677C6.24239 3.16791 6.43063 3.16226 8.01738 3.16226C9.60413 3.16226 9.79253 3.16838 10.4197 3.19693C10.7966 3.2015 11.1699 3.27047 11.5236 3.40086C11.7801 3.49968 12.013 3.65115 12.2073 3.8455C12.4017 4.03985 12.5532 4.27276 12.652 4.52923C12.7828 4.88276 12.8518 5.25619 12.8559 5.63313C12.8848 6.26062 12.8904 6.44792 12.8904 8.03546C12.8904 9.62299 12.8846 9.81061 12.8559 10.4378C12.8515 10.8147 12.7825 11.1881 12.652 11.5417C12.553 11.798 12.4015 12.0308 12.2072 12.2251C12.0129 12.4193 11.78 12.5708 11.5236 12.6696C11.1701 12.8004 10.7966 12.8694 10.4197 12.8735C9.79316 12.9024 9.60491 12.908 8.01738 12.908C6.42984 12.908 6.24223 12.9022 5.61584 12.8735M5.56659 2.12644C5.07336 2.13614 4.58535 2.22949 4.12337 2.40253C3.72845 2.55522 3.36979 2.78876 3.07039 3.08816C2.771 3.38755 2.53746 3.74621 2.38477 4.14113C2.21175 4.60312 2.1184 5.09112 2.10868 5.58435C2.07934 6.21811 2.07275 6.42078 2.07275 8.03514C2.07275 9.6495 2.0795 9.85202 2.10868 10.4859C2.1184 10.9792 2.21175 11.4672 2.38477 11.9291C2.53747 12.3241 2.77101 12.6827 3.0704 12.9821C3.3698 13.2815 3.72845 13.515 4.12337 13.6678C4.58537 13.8407 5.07337 13.9341 5.56659 13.9438C6.20066 13.9727 6.40302 13.9798 8.01738 13.9798C9.63174 13.9798 9.83426 13.973 10.4682 13.9438C10.9614 13.9341 11.4494 13.8407 11.9114 13.6678C12.3063 13.515 12.665 13.2815 12.9644 12.9821C13.2638 12.6827 13.4973 12.3241 13.65 11.9291C13.8232 11.4672 13.9166 10.9792 13.9261 10.4859C13.955 9.85171 13.9615 9.6495 13.9615 8.03514C13.9615 6.42078 13.9548 6.21826 13.9261 5.58435C13.9164 5.09112 13.823 4.60311 13.65 4.14113C13.4973 3.74628 13.2638 3.38768 12.9645 3.08829C12.6652 2.7889 12.3067 2.55533 11.9119 2.40253C11.4499 2.22938 10.9619 2.13602 10.4686 2.12644C9.83473 2.09742 9.63221 2.09052 8.01816 2.09052C6.40412 2.09052 6.20113 2.09726 5.5669 2.12644" fill="white"/>
<defs>
<radialGradient id="paint0_radial_1672_9" cx="0" cy="0" r="1" gradientUnits="userSpaceOnUse" gradientTransform="translate(1.03551 15.6504) scale(20.3151)">
<stop offset="0.09" stop-color="#FA8F21"/>
<stop offset="0.78" stop-color="#D82D7E"/>
</radialGradient>
<radialGradient id="paint1_radial_1672_9" cx="0" cy="0" r="1" gradientUnits="userSpaceOnUse" gradientTransform="translate(11.0833 15.1365) scale(17.8775)">
<stop offset="0.64" stop-color="#8C3AAA" stop-opacity="0"/>
<stop offset="1" stop-color="#8C3AAA"/>
</radialGradient>
</defs>
</svg>
