<svg width="66" height="54" viewBox="0 0 66 54" fill="none" xmlns="http://www.w3.org/2000/svg">
<g filter="url(#filter0_b_131_27)">
<path d="M29.1055 6.83594C26.0456 8.59375 23.5716 10.1237 21.6836 11.4258C19.7956 12.6628 17.875 14.3229 15.9219 16.4062C14.099 18.3594 12.6992 20.4102 11.7227 22.5586C10.7461 24.707 10.0625 27.474 9.67188 30.8594H14.3594C18.3958 30.8594 21.5534 31.8685 23.832 33.8867C26.1758 35.8398 27.3477 38.737 27.3477 42.5781C27.3477 45.3125 26.306 47.8841 24.2227 50.293C22.2044 52.6367 19.4049 53.8086 15.8242 53.8086C10.2253 53.8086 6.22135 51.9857 3.8125 48.3398C1.40365 44.6289 0.199219 39.7786 0.199219 33.7891C0.199219 29.5573 1.11068 25.7161 2.93359 22.2656C4.75651 18.75 6.97005 15.625 9.57422 12.8906C12.2435 10.0911 15.0755 7.71484 18.0703 5.76172C21.0651 3.80859 23.5716 2.21354 25.5898 0.976562L29.1055 6.83594ZM65.2383 6.83594C62.1784 8.59375 59.7044 10.1237 57.8164 11.4258C55.9284 12.6628 54.0078 14.3229 52.0547 16.4062C50.1667 18.4245 48.7344 20.5078 47.7578 22.6562C46.8464 24.7396 46.1953 27.474 45.8047 30.8594H50.4922C54.5286 30.8594 57.6862 31.8685 59.9648 33.8867C62.3086 35.8398 63.4805 38.737 63.4805 42.5781C63.4805 45.3125 62.4388 47.8841 60.3555 50.293C58.3372 52.6367 55.5378 53.8086 51.957 53.8086C46.3581 53.8086 42.3542 51.9857 39.9453 48.3398C37.5365 44.6289 36.332 39.7786 36.332 33.7891C36.332 29.5573 37.2435 25.7161 39.0664 22.2656C40.8893 18.75 43.1029 15.625 45.707 12.8906C48.3763 10.0911 51.2083 7.71484 54.2031 5.76172C57.1979 3.80859 59.7044 2.21354 61.7227 0.976562L65.2383 6.83594Z" fill="#DCEDFB"/>
</g>
<defs>
<filter id="filter0_b_131_27" x="-59.8008" y="-59.0234" width="185.039" height="172.832" filterUnits="userSpaceOnUse" color-interpolation-filters="sRGB">
<feFlood flood-opacity="0" result="BackgroundImageFix"/>
<feGaussianBlur in="BackgroundImageFix" stdDeviation="30"/>
<feComposite in2="SourceAlpha" operator="in" result="effect1_backgroundBlur_131_27"/>
<feBlend mode="normal" in="SourceGraphic" in2="effect1_backgroundBlur_131_27" result="shape"/>
</filter>
</defs>
</svg>
